<svg width="149" height="36" viewBox="0 0 149 36" fill="none" xmlns="http://www.w3.org/2000/svg">
<path d="M0.311285 6.60293C0.169592 3.06409 3.06519 0.137864 6.60483 0.25798C16.3571 0.588921 23.7336 0.580531 33.5035 0.249928C37.0036 0.131491 39.8831 2.9958 39.7821 6.49638C39.5391 14.9226 39.5375 21.3403 39.7738 29.4389C39.8766 32.9628 36.9645 35.8405 33.442 35.699C23.7182 35.3085 16.3595 35.3045 6.65061 35.6936C3.0945 35.8362 0.169731 32.9049 0.311374 29.3488C0.637237 21.1676 0.639116 14.7906 0.311285 6.60293Z" fill="#3D996D"/>
<path d="M57.14 26.24C56.1133 26.24 55.2067 26.0667 54.42 25.72C53.6333 25.36 53.0133 24.8533 52.56 24.2C52.1067 23.5333 51.8733 22.7267 51.86 21.78H54.56C54.5867 22.4333 54.82 22.9867 55.26 23.44C55.7133 23.88 56.3333 24.1 57.12 24.1C57.8 24.1 58.34 23.94 58.74 23.62C59.14 23.2867 59.34 22.8467 59.34 22.3C59.34 21.7267 59.16 21.28 58.8 20.96C58.4533 20.64 57.9867 20.38 57.4 20.18C56.8133 19.98 56.1867 19.7667 55.52 19.54C54.44 19.1667 53.6133 18.6867 53.04 18.1C52.48 17.5133 52.2 16.7333 52.2 15.76C52.1867 14.9333 52.38 14.2267 52.78 13.64C53.1933 13.04 53.7533 12.58 54.46 12.26C55.1667 11.9267 55.98 11.76 56.9 11.76C57.8333 11.76 58.6533 11.9267 59.36 12.26C60.08 12.5933 60.64 13.06 61.04 13.66C61.4533 14.26 61.6733 14.9733 61.7 15.8H58.96C58.9467 15.3067 58.7533 14.8733 58.38 14.5C58.02 14.1133 57.5133 13.92 56.86 13.92C56.3 13.9067 55.8267 14.0467 55.44 14.34C55.0667 14.62 54.88 15.0333 54.88 15.58C54.88 16.0467 55.0267 16.42 55.32 16.7C55.6133 16.9667 56.0133 17.1933 56.52 17.38C57.0267 17.5667 57.6067 17.7667 58.26 17.98C58.9533 18.22 59.5867 18.5 60.16 18.82C60.7333 19.14 61.1933 19.5667 61.54 20.1C61.8867 20.62 62.06 21.2933 62.06 22.12C62.06 22.8533 61.8733 23.5333 61.5 24.16C61.1267 24.7867 60.5733 25.2933 59.84 25.68C59.1067 26.0533 58.2067 26.24 57.14 26.24ZM68.6536 26C67.6136 26 66.7803 25.7467 66.1536 25.24C65.5269 24.7333 65.2136 23.8333 65.2136 22.54V18.22H63.5136V16.08H65.2136L65.5136 13.42H67.7736V16.08H70.4536V18.22H67.7736V22.56C67.7736 23.04 67.8736 23.3733 68.0736 23.56C68.2869 23.7333 68.6469 23.82 69.1536 23.82H70.3936V26H68.6536ZM77.1577 26.24C76.1977 26.24 75.331 26.02 74.5577 25.58C73.7977 25.14 73.191 24.5333 72.7377 23.76C72.2977 22.9733 72.0777 22.0667 72.0777 21.04C72.0777 20.0133 72.3043 19.1133 72.7577 18.34C73.211 17.5533 73.8177 16.94 74.5777 16.5C75.351 16.06 76.2177 15.84 77.1777 15.84C78.1243 15.84 78.9777 16.06 79.7377 16.5C80.511 16.94 81.1177 17.5533 81.5577 18.34C82.011 19.1133 82.2377 20.0133 82.2377 21.04C82.2377 22.0667 82.011 22.9733 81.5577 23.76C81.1177 24.5333 80.511 25.14 79.7377 25.58C78.9643 26.02 78.1043 26.24 77.1577 26.24ZM77.1577 24.02C77.8243 24.02 78.4043 23.7733 78.8977 23.28C79.391 22.7733 79.6377 22.0267 79.6377 21.04C79.6377 20.0533 79.391 19.3133 78.8977 18.82C78.4043 18.3133 77.831 18.06 77.1777 18.06C76.4977 18.06 75.911 18.3133 75.4177 18.82C74.9377 19.3133 74.6977 20.0533 74.6977 21.04C74.6977 22.0267 74.9377 22.7733 75.4177 23.28C75.911 23.7733 76.491 24.02 77.1577 24.02ZM84.5266 26V16.08H86.8066L87.0466 17.94C87.4066 17.3 87.8932 16.7933 88.5066 16.42C89.1332 16.0333 89.8666 15.84 90.7066 15.84V18.54H89.9866C89.4266 18.54 88.9266 18.6267 88.4866 18.8C88.0466 18.9733 87.6999 19.2733 87.4466 19.7C87.2066 20.1267 87.0866 20.72 87.0866 21.48V26H84.5266ZM93.6963 30.4L95.9963 25.34H95.3963L91.5363 16.08H94.3163L97.0963 23.06L99.9963 16.08H102.716L96.4163 30.4H93.6963ZM104.45 26V12H107.01V17.66L112.19 12H115.35L110.19 17.56L115.49 26H112.35L108.35 19.52L107.01 20.98V26H104.45ZM119.919 26.24C119.066 26.24 118.366 26.1067 117.819 25.84C117.273 25.56 116.866 25.1933 116.599 24.74C116.333 24.2867 116.199 23.7867 116.199 23.24C116.199 22.32 116.559 21.5733 117.279 21C117.999 20.4267 119.079 20.14 120.519 20.14H123.039V19.9C123.039 19.22 122.846 18.72 122.459 18.4C122.073 18.08 121.593 17.92 121.019 17.92C120.499 17.92 120.046 18.0467 119.659 18.3C119.273 18.54 119.033 18.9 118.939 19.38H116.439C116.506 18.66 116.746 18.0333 117.159 17.5C117.586 16.9667 118.133 16.56 118.799 16.28C119.466 15.9867 120.213 15.84 121.039 15.84C122.453 15.84 123.566 16.1933 124.379 16.9C125.193 17.6067 125.599 18.6067 125.599 19.9V26H123.419L123.179 24.4C122.886 24.9333 122.473 25.3733 121.939 25.72C121.419 26.0667 120.746 26.24 119.919 26.24ZM120.499 24.24C121.233 24.24 121.799 24 122.199 23.52C122.613 23.04 122.873 22.4467 122.979 21.74H120.799C120.119 21.74 119.633 21.8667 119.339 22.12C119.046 22.36 118.899 22.66 118.899 23.02C118.899 23.4067 119.046 23.7067 119.339 23.92C119.633 24.1333 120.019 24.24 120.499 24.24ZM132.142 26.24C131.262 26.24 130.489 26.1 129.822 25.82C129.156 25.5267 128.622 25.1267 128.222 24.62C127.822 24.1133 127.582 23.5267 127.502 22.86H130.082C130.162 23.2467 130.376 23.58 130.722 23.86C131.082 24.1267 131.542 24.26 132.102 24.26C132.662 24.26 133.069 24.1467 133.322 23.92C133.589 23.6933 133.722 23.4333 133.722 23.14C133.722 22.7133 133.536 22.4267 133.162 22.28C132.789 22.12 132.269 21.9667 131.602 21.82C131.176 21.7267 130.742 21.6133 130.302 21.48C129.862 21.3467 129.456 21.18 129.082 20.98C128.722 20.7667 128.429 20.5 128.202 20.18C127.976 19.8467 127.862 19.44 127.862 18.96C127.862 18.08 128.209 17.34 128.902 16.74C129.609 16.14 130.596 15.84 131.862 15.84C133.036 15.84 133.969 16.1133 134.662 16.66C135.369 17.2067 135.789 17.96 135.922 18.92H133.502C133.356 18.1867 132.802 17.82 131.842 17.82C131.362 17.82 130.989 17.9133 130.722 18.1C130.469 18.2867 130.342 18.52 130.342 18.8C130.342 19.0933 130.536 19.3267 130.922 19.5C131.309 19.6733 131.822 19.8333 132.462 19.98C133.156 20.14 133.789 20.32 134.362 20.52C134.949 20.7067 135.416 20.9933 135.762 21.38C136.109 21.7533 136.282 22.2933 136.282 23C136.296 23.6133 136.136 24.1667 135.802 24.66C135.469 25.1533 134.989 25.54 134.362 25.82C133.736 26.1 132.996 26.24 132.142 26.24ZM141.97 26.24C141.117 26.24 140.417 26.1067 139.87 25.84C139.323 25.56 138.917 25.1933 138.65 24.74C138.383 24.2867 138.25 23.7867 138.25 23.24C138.25 22.32 138.61 21.5733 139.33 21C140.05 20.4267 141.13 20.14 142.57 20.14H145.09V19.9C145.09 19.22 144.897 18.72 144.51 18.4C144.123 18.08 143.643 17.92 143.07 17.92C142.55 17.92 142.097 18.0467 141.71 18.3C141.323 18.54 141.083 18.9 140.99 19.38H138.49C138.557 18.66 138.797 18.0333 139.21 17.5C139.637 16.9667 140.183 16.56 140.85 16.28C141.517 15.9867 142.263 15.84 143.09 15.84C144.503 15.84 145.617 16.1933 146.43 16.9C147.243 17.6067 147.65 18.6067 147.65 19.9V26H145.47L145.23 24.4C144.937 24.9333 144.523 25.3733 143.99 25.72C143.47 26.0667 142.797 26.24 141.97 26.24ZM142.55 24.24C143.283 24.24 143.85 24 144.25 23.52C144.663 23.04 144.923 22.4467 145.03 21.74H142.85C142.17 21.74 141.683 21.8667 141.39 22.12C141.097 22.36 140.95 22.66 140.95 23.02C140.95 23.4067 141.097 23.7067 141.39 23.92C141.683 24.1333 142.07 24.24 142.55 24.24Z" fill="black"/>
<path d="M8 25H20H32" stroke="#EAF8B2" stroke-width="4"/>
<path d="M8 17C13.2 17 20 19.5 20 27" stroke="#EAF8B2" stroke-width="4"/>
<path d="M32 9C26.8 9 20 13.5 20 27" stroke="#EAF8B2" stroke-width="4"/>
</svg>
