<svg width="120" height="120" viewBox="0 0 120 120" fill="none" xmlns="http://www.w3.org/2000/svg">
<path d="M0.85131 23.7898C0.453558 14.2553 8.26154 6.36933 17.7985 6.70432C48.729 7.79075 71.5145 7.76359 102.497 6.68149C111.927 6.35212 119.687 14.0774 119.405 23.5092C118.597 50.4734 118.593 70.4331 119.381 96.3247C119.67 105.819 111.82 113.573 102.329 113.179C71.475 111.898 48.7334 111.886 17.9231 113.164C8.34195 113.561 0.453859 105.662 0.851371 96.0812C1.93873 69.8728 1.94543 50.017 0.85131 23.7898Z" fill="#3D996D"/>
<path d="M24 81H60H96" stroke="#EAF8B2" stroke-width="10.7778"/>
<path d="M24 55C39.6 55 60 62.5 60 85" stroke="#EAF8B2" stroke-width="10.7778"/>
<path d="M96 31C80.4 31 60 44.5 60 85" stroke="#EAF8B2" stroke-width="10.7778"/>
</svg>
